<?xml version="1.0" encoding="UTF-8"?>
<svg width="16px" height="16px" viewBox="0 0 16 16" version="1.1" xmlns="http://www.w3.org/2000/svg" xmlns:xlink="http://www.w3.org/1999/xlink">
    <g id="atoms-/-icons-/-small-/-floor-plan" stroke="none" stroke-width="1" fill="none" fill-rule="evenodd">
        <path d="M14,4 L14,5.15 C14,5.61944204 13.619442,6 13.15,6 C12.680558,6 12.3,5.61944204 12.3,5.15 L12.3,4.7 C12.3,4.14771525 11.8522847,3.7 11.3,3.7 L4.7,3.7 C4.14771525,3.7 3.7,4.14771525 3.7,4.7 L3.7,11.3 C3.7,11.8522847 4.14771525,12.3 4.7,12.3 L11.3,12.3 C11.8522847,12.3 12.3,11.8522847 12.3,11.3 L12.3,8.85 C12.3,8.38055796 12.680558,8 13.15,8 C13.619442,8 14,8.38055796 14,8.85 L14,12 C14,13.1045695 13.1045695,14 12,14 L4,14 C2.8954305,14 2,13.1045695 2,12 L2,4 C2,2.8954305 2.8954305,2 4,2 L12,2 C13.1045695,2 14,2.8954305 14,4 Z" id="Path" fill="#5C5C5D" fill-rule="nonzero"></path>
        <rect id="Rectangle" fill="#5C5C5D" fill-rule="nonzero" x="8" y="8" width="1" height="6"></rect>
        <rect id="Rectangle" fill="#5C5C5D" fill-rule="nonzero" x="6" y="8" width="5" height="1"></rect>
        <rect id="Rectangle" fill="#5C5C5D" fill-rule="nonzero" x="2" y="8" width="3" height="1"></rect>
        <rect id="Rectangle" fill="#5C5C5D" fill-rule="nonzero" x="8" y="2" width="1" height="5"></rect>
    </g>
</svg>
