<?xml version="1.0" encoding="UTF-8"?>
<svg width="16px" height="16px" viewBox="0 0 16 16" version="1.1" xmlns="http://www.w3.org/2000/svg" xmlns:xlink="http://www.w3.org/1999/xlink">
    <g id="atoms-/-icons-/-small-/-notes" stroke="none" stroke-width="1" fill="none" fill-rule="evenodd">
        <path d="M13.0092235,4.62136471 L13.7536941,3.87689412 C13.7875765,3.84301176 13.8035765,3.80065882 13.8035765,3.74795294 C13.8035765,3.69430588 13.7875765,3.65289412 13.7536941,3.61807059 L12.6289882,2.49430588 C12.5951059,2.46042353 12.5527529,2.44348235 12.4991059,2.44348235 C12.4454588,2.44348235 12.4049882,2.45948235 12.3701647,2.49430588 L11.6266353,3.23783529 L13.0092235,4.62136471 Z M5.80828235,9.05618824 L5.66334118,10.5827765 L7.24734118,10.4124235 L11.9880471,5.64348235 L10.6035765,4.26089412 L5.80828235,9.05618824 Z M5.35087059,12.0707765 C5.03275294,12.0707765 4.75510588,11.9540706 4.52451765,11.7234824 C4.26098824,11.4590118 4.14616471,11.1343059 4.18381176,10.7587765 L4.44451765,8.40395294 L11.3480471,1.47218824 C11.6614588,1.15877647 12.0482824,0.999717647 12.4991059,0.999717647 C12.9508706,0.999717647 13.3376941,1.15877647 13.6511059,1.47218824 L14.7748706,2.59689412 C15.0882824,2.91030588 15.2473412,3.29712941 15.2473412,3.74795294 C15.2473412,4.19877647 15.0882824,4.58654118 14.7748706,4.89995294 L7.89957647,11.7752471 L5.49016471,12.0641882 C5.44216471,12.0688941 5.39604706,12.0707765 5.35087059,12.0707765 L5.35087059,12.0707765 Z M1.34898824,14.5743059 C0.976282353,14.5743059 0.655341176,14.4416 0.393694118,14.1808941 C0.132047059,13.9192471 0.000282352941,13.5983059 0.000282352941,13.2256 L0.000282352941,4.02277647 C0.000282352941,3.65007059 0.132047059,3.32818824 0.393694118,3.06748235 C0.655341176,2.80583529 0.976282353,2.67312941 1.34898824,2.67312941 L7.57110588,2.67312941 C7.69722353,2.67312941 7.79322353,2.74089412 7.84216471,2.86418824 C7.89016471,2.98465882 7.86475294,3.10418824 7.76875294,3.20018824 L6.93204706,4.03689412 C6.8784,4.0896 6.81251765,4.11689412 6.7344,4.11689412 L1.44310588,4.11689412 L1.44310588,13.1314824 L10.4576941,13.1314824 L10.4576941,11.1860706 C10.4576941,11.1088941 10.4849882,11.0401882 10.5376941,10.9884235 L11.3744,10.1517176 C11.4384,10.0877176 11.5118118,10.0547765 11.5918118,10.0547765 L11.6096941,10.0547765 L11.7113412,10.0792471 C11.8327529,10.1281882 11.9005176,10.2336 11.9005176,10.3757176 L11.9005176,13.2256 C11.9005176,13.5983059 11.7687529,13.9192471 11.5071059,14.1808941 C11.2454588,14.4416 10.9245176,14.5743059 10.5518118,14.5743059 L1.34898824,14.5743059 Z" id="Fill-1" fill="#5C5C5D"></path>
    </g>
</svg>
