<?xml version="1.0" encoding="UTF-8"?>
<svg width="16px" height="16px" viewBox="0 0 16 16" version="1.1" xmlns="http://www.w3.org/2000/svg" xmlns:xlink="http://www.w3.org/1999/xlink">
    <g id="icons-/-small-/-save-(white)" stroke="none" stroke-width="1" fill="none" fill-rule="evenodd">
        <path d="M14.5625,4.0625 C14.8541665,4.35416651 15,4.70833349 15,5.125 L15,13.5 C15,13.9166665 14.8541665,14.2708335 14.5625,14.5625 C14.2708335,14.8541665 13.9166665,15 13.5,15 L2.5,15 C2.08333349,15 1.72916651,14.8541665 1.4375,14.5625 C1.14583349,14.2708335 1,13.9166665 1,13.5 L1,2.5 C1,2.08333349 1.14583349,1.72916651 1.4375,1.4375 C1.72916651,1.14583349 2.08333349,1 2.5,1 L10.875,1 C11.2916665,1 11.6458335,1.14583349 11.9375,1.4375 L14.5625,4.0625 Z M9.5,2.5 L5.5,2.5 L5.5,5 L9.5,5 L9.5,2.5 Z M13.3125,13.5 C13.3541665,13.5 13.3958335,13.4791665 13.4375,13.4375 C13.4791665,13.3958335 13.5,13.3541665 13.5,13.3125 L13.5,5.1875 C13.5,5.14583349 13.4791665,5.10416651 13.4375,5.0625 L11,2.625 L11,5.75 C11,5.95833349 10.9270835,6.13541651 10.78125,6.28125 C10.6354165,6.42708349 10.4583335,6.5 10.25,6.5 L4.75,6.5 C4.54166651,6.5 4.36458349,6.42708349 4.21875,6.28125 C4.07291651,6.13541651 4,5.95833349 4,5.75 L4,2.5 L2.6875,2.5 C2.64583349,2.5 2.60416651,2.52083349 2.5625,2.5625 C2.52083349,2.60416651 2.5,2.64583349 2.5,2.6875 L2.5,13.3125 C2.5,13.3541665 2.52083349,13.3958335 2.5625,13.4375 C2.60416651,13.4791665 2.64583349,13.5 2.6875,13.5 L13.3125,13.5 Z M8,7.25 C8.75,7.25 9.39583349,7.52083349 9.9375,8.0625 C10.4791665,8.60416651 10.75,9.25 10.75,10 C10.75,10.75 10.4791665,11.3958335 9.9375,11.9375 C9.39583349,12.4791665 8.75,12.75 8,12.75 C7.25,12.75 6.60416651,12.4791665 6.0625,11.9375 C5.52083349,11.3958335 5.25,10.75 5.25,10 C5.25,9.25 5.52083349,8.60416651 6.0625,8.0625 C6.60416651,7.52083349 7.25,7.25 8,7.25 Z M8,11.25 C8.35416651,11.25 8.65104151,11.1302085 8.890625,10.890625 C9.13020849,10.6510415 9.25,10.3541665 9.25,10 C9.25,9.64583349 9.13020849,9.34895849 8.890625,9.109375 C8.65104151,8.86979151 8.35416651,8.75 8,8.75 C7.64583349,8.75 7.34895849,8.86979151 7.109375,9.109375 C6.86979151,9.34895849 6.75,9.64583349 6.75,10 C6.75,10.3541665 6.86979151,10.6510415 7.109375,10.890625 C7.34895849,11.1302085 7.64583349,11.25 8,11.25 Z" id="" fill="#000000"></path>
    </g>
</svg>
