<?xml version="1.0" encoding="UTF-8"?>
<svg width="16px" height="16px" viewBox="0 0 16 16" version="1.1" xmlns="http://www.w3.org/2000/svg" xmlns:xlink="http://www.w3.org/1999/xlink">
    <defs>
        <path d="M3.1875,7.125 C10.8498263,7.16753463 14.7235242,7.23133671 14.8085938,7.31640625 C14.9361981,7.44401056 15,7.59895819 15,7.78125 L15,8.21875 C15,8.40104181 14.9361981,8.55598944 14.8085938,8.68359375 C14.6809894,8.81119806 14.5260418,8.875 14.34375,8.875 L14.125,8.875 L14.125,9.75 C14.125,10.1328125 14.0475262,10.4928387 13.8925781,10.8300781 C13.7376301,11.1673176 13.5234375,11.4635418 13.25,11.71875 L13.25,12.59375 C13.25,12.7760418 13.1861981,12.9309894 13.0585938,13.0585938 C12.9309894,13.1861981 12.7760418,13.25 12.59375,13.25 L12.15625,13.25 C11.9739582,13.25 11.8190106,13.1861981 11.6914062,13.0585938 C11.5638019,12.9309894 11.5,12.7760418 11.5,12.59375 L11.5,12.375 L4.5,12.375 L4.5,12.59375 C4.5,12.7760418 4.43619806,12.9309894 4.30859375,13.0585938 C4.18098944,13.1861981 4.02604181,13.25 3.84375,13.25 L3.40625,13.25 C3.22395819,13.25 3.06901056,13.1861981 2.94140625,13.0585938 C2.81380194,12.9309894 2.75,12.7760418 2.75,12.59375 L2.75,11.71875 C2.4765625,11.4635418 2.26236993,11.1673176 2.10742188,10.8300781 C1.95247382,10.4928387 1.875,10.1328125 1.875,9.75 L1.875,8.875 L1.65625,8.875 C1.47395819,8.875 1.31901056,8.81119806 1.19140625,8.68359375 C1.06380194,8.55598944 1,8.40104181 1,8.21875 L1,7.78125 C1,7.59895819 1.06380194,7.44401056 1.19140625,7.31640625 C1.31901056,7.18880194 1.47395819,7.125 1.65625,7.125 L3.1875,7.125 Z M4,2 C4.55,2 5.02083321,2.19583321 5.4125,2.5875 C5.80416679,2.97916679 6,3.45 6,4 C6,4.55 5.80416679,5.02083321 5.4125,5.4125 C5.02083321,5.80416679 4.55,6 4,6 C3.45,6 2.97916679,5.80416679 2.5875,5.4125 C2.19583321,5.02083321 2,4.55 2,4 C2,3.45 2.19583321,2.97916679 2.5875,2.5875 C2.97916679,2.19583321 3.45,2 4,2 Z" id="path-1"></path>
    </defs>
    <g id="atoms-/-icons-/-small-/-bathroom" stroke="none" stroke-width="1" fill="none" fill-rule="evenodd">
        <mask id="mask-2" fill="white">
            <use xlink:href="#path-1"></use>
        </mask>
        <use id="Combined-Shape" fill="#5C5C5D" xlink:href="#path-1"></use>
    </g>
</svg>
