<svg id="aa0ba108-1c6f-40f3-94c2-e20e755faa18" data-name="Layer 1" xmlns="http://www.w3.org/2000/svg" width="32" height="32" viewBox="0 0 32 32">
  <title>icon-nav-home-design</title>
  <g id="b28f2674-c746-42e8-9473-019c1d7811d7" data-name="background">
    <rect x="7" y="6" width="19" height="19" fill="#fff"/>
  </g>
  <g id="e70c1266-3680-4d77-87d5-0bc84c3d9063" data-name="foreground">
    <path d="M7,6V25H26V6Zm6,6H8V7h5Z" fill="#5c5c5d" opacity="0.05" style="isolation: isolate"/>
    <path d="M24,5H9A3,3,0,0,0,6,8V23a3,3,0,0,0,3,3h9a1,1,0,0,0,0-2H17V17H13v3.5A3.47,3.47,0,0,1,10,17H8V13h6V7h4V9h3.5A3.47,3.47,0,0,1,18,12v4h7v7a.94.94,0,0,1-1,1H23a1,1,0,0,0,0,2h1a3,3,0,0,0,3-3V8A3,3,0,0,0,24,5ZM12.3,7,10.5,8.8,8.8,7.1c0-.1.1-.1.2-.1Zm-4.2.8L9.8,9.5,8,11.3V8C8,7.9,8,7.8,8.1,7.8ZM9.5,19a4.57,4.57,0,0,0,4,2.5H14V19h1v5H9a.94.94,0,0,1-1-1V19Zm-.8-7,1.8-1.8L12.3,12Zm4.3-.7L11.2,9.5,13,7.7ZM25,14H20V12.5a4.57,4.57,0,0,0,2.5-4V8H20V7h4a.94.94,0,0,1,1,1Z" fill="#5c5c5d"/>
  </g>
</svg>
