<?xml version="1.0" encoding="UTF-8"?>
<svg width="16px" height="16px" viewBox="0 0 16 16" version="1.1" xmlns="http://www.w3.org/2000/svg" xmlns:xlink="http://www.w3.org/1999/xlink">
    <!-- Generator: Sketch 57 (83077) - https://sketch.com -->
    <title>atoms / icons / small / car spaces</title>
    <desc>Created with Sketch.</desc>
    <defs>
        <path d="M14.6643849,5.84374322 C14.7737597,5.84374322 14.8603482,5.88931617 14.9241499,5.98046164 C14.9879517,6.07160712 15.0016236,6.17186744 14.9651655,6.28124218 L14.746416,6.93749061 C14.7099579,7.08332346 14.6096976,7.15624009 14.4456355,7.15624009 L13.6526686,7.15624009 C13.9261054,7.3203022 14.1448549,7.53449426 14.308917,7.79881668 C14.4729791,8.06313911 14.5550102,8.35936222 14.5550102,8.68748644 L14.5550102,9.99998331 C14.5550102,10.4374823 14.4091774,10.8202939 14.1175112,11.1484181 L14.1175112,12.8437265 C14.1175112,13.0260179 14.0537095,13.1809652 13.9261054,13.3085692 C13.7985014,13.4361732 13.6435542,13.499975 13.4612628,13.499975 L12.1487659,13.499975 C11.9664746,13.499975 11.8115273,13.4361732 11.6839233,13.3085692 C11.5563193,13.1809652 11.4925175,13.0260179 11.4925175,12.8437265 L11.4925175,11.7499791 L4.49253419,11.7499791 L4.49253419,12.8437265 C4.49253419,13.0260179 4.4287324,13.1809652 4.3011284,13.3085692 C4.1735244,13.4361732 4.01857713,13.499975 3.83628575,13.499975 L2.52378888,13.499975 C2.34149751,13.499975 2.18655024,13.4361732 2.05894624,13.3085692 C1.93134224,13.1809652 1.86754045,13.0260179 1.86754045,12.8437265 L1.86754045,11.1484181 C1.57587434,10.8202939 1.43004149,10.4374823 1.43004149,9.99998331 L1.43004149,8.68748644 C1.43004149,8.35936222 1.51207255,8.06313911 1.67613466,7.79881668 C1.84019676,7.53449426 2.05894624,7.3203022 2.33238309,7.15624009 L1.53941623,7.15624009 C1.37535412,7.15624009 1.27509381,7.08332346 1.2386357,6.93749061 L1.01988622,6.28124218 C0.983428112,6.17186744 0.997099955,6.07160712 1.06090175,5.98046164 C1.12470354,5.88931617 1.21129201,5.84374322 1.32066675,5.84374322 L2.82456942,5.84374322 L3.0433189,5.26952584 C3.29852648,4.59504814 3.72691102,4.04817445 4.32847208,3.62890475 C4.93003315,3.20963506 5.59539601,3 6.32456107,3 L9.66049062,3 C10.3896557,3 11.0550185,3.20963506 11.6565796,3.62890475 C12.2581407,4.04817445 12.6865252,4.59504814 12.9417328,5.26952584 L13.1604823,5.84374322 L14.6643849,5.84374322 Z M4.68393998,5.89843059 L4.27378471,6.93749061 L11.711267,6.93749061 L11.3011117,5.89843059 C11.1735077,5.55207711 10.9593156,5.27408326 10.6585351,5.0644482 C10.3577546,4.85481315 10.0250729,4.74999583 9.66049062,4.74999583 L6.32456107,4.74999583 C5.95997875,4.74999583 5.62729711,4.85481315 5.32651658,5.0644482 C5.02573604,5.27408326 4.81154399,5.55207711 4.68393998,5.89843059 Z M3.3987868,10.2187328 L3.50816154,10.2187328 C3.87274386,10.2187328 4.13706629,10.2005035 4.3011284,10.1640454 C4.57456524,10.109358 4.71128367,9.98175405 4.71128367,9.78123383 C4.71128367,9.54425509 4.55177898,9.26626124 4.23276918,8.94725145 C3.91375939,8.62824165 3.63576554,8.46873696 3.3987868,8.46873696 C3.16180806,8.46873696 2.95673042,8.55532544 2.78355389,8.72850197 C2.61037736,8.9016785 2.52378888,9.10675613 2.52378888,9.34373488 C2.52378888,9.58071362 2.61037736,9.78579125 2.78355389,9.95896778 C2.95673042,10.1321443 3.16180806,10.2187328 3.3987868,10.2187328 Z M12.5862649,10.2187328 C12.8232436,10.2187328 13.0283213,10.1321443 13.2014978,9.95896778 C13.3746743,9.78579125 13.4612628,9.58071362 13.4612628,9.34373488 C13.4612628,9.10675613 13.3746743,8.9016785 13.2014978,8.72850197 C13.0283213,8.55532544 12.8232436,8.46873696 12.5862649,8.46873696 C12.3492862,8.46873696 12.0712923,8.62824165 11.7522825,8.94725145 C11.4332727,9.26626124 11.273768,9.54425509 11.273768,9.78123383 C11.273768,9.98175405 11.4104864,10.109358 11.6839233,10.1640454 C11.8479854,10.2005035 12.1123078,10.2187328 12.4768902,10.2187328 L12.5862649,10.2187328 Z" id="path-1"></path>
    </defs>
    <g id="atoms-/-icons-/-small-/-car-spaces" stroke="none" stroke-width="1" fill="none" fill-rule="evenodd">
        <mask id="mask-2" fill="white">
            <use xlink:href="#path-1"></use>
        </mask>
        <use id="Mask" fill="#5C5C5D" xlink:href="#path-1"></use>
    </g>
</svg>