<?xml version="1.0" encoding="UTF-8"?>
<svg width="16px" height="16px" viewBox="0 0 16 16" version="1.1" xmlns="http://www.w3.org/2000/svg" xmlns:xlink="http://www.w3.org/1999/xlink">
    <defs>
        <path d="M9.06669388,10.6274817 C9.76501902,10.6274817 10.4222477,10.8026382 11.0256923,11.1503893 C11.6292605,11.4982117 12.1133017,11.9785 12.4658992,12.5805607 C12.8205448,13.1870571 13,13.8511394 13,14.5565153 L13,15 L11.2857143,15 L11.2857143,14.5565153 C11.2857143,14.1671794 11.1900524,13.8131783 10.9943191,13.478445 C10.7953412,13.1386902 10.5283417,12.8737608 10.183124,12.6748198 C9.83761669,12.475712 9.47072638,12.3779329 9.06669388,12.3779329 L4.93330612,12.3779329 C4.52970716,12.3779329 4.16212362,12.4758616 3.81687599,12.6748198 C3.47165829,12.8737608 3.20465878,13.1386902 3.00598081,13.4779325 C2.80994756,13.8131783 2.71428571,14.1671794 2.71428571,14.5565153 L2.71428571,15 L1,15 L1,14.5565153 C1,13.8511394 1.17945515,13.1870571 1.53440073,12.5800482 C1.88669831,11.9785 2.37073946,11.4982117 2.97430768,11.1503893 C3.57753818,10.8027616 4.23546556,10.6274817 4.93330612,10.6274817 L9.06669388,10.6274817 Z M7,1 C7.78124983,1 8.5011159,1.19373501 9.15959821,1.5812045 C9.81808053,1.968674 10.3370537,2.49859575 10.7165179,3.17096976 C11.095982,3.84334377 11.2857143,4.57839653 11.2857143,5.37612802 C11.2857143,6.17385952 11.095982,6.90891227 10.7165179,7.58128628 C10.3370537,8.25366029 9.81808053,8.78358205 9.15959821,9.17105154 C8.5011159,9.55852104 7.78124983,9.75225605 7,9.75225605 C6.21875017,9.75225605 5.4988841,9.55852104 4.84040179,9.17105154 C4.18191947,8.78358205 3.66294626,8.25366029 3.28348214,7.58128628 C2.90401803,6.90891227 2.71428571,6.17385952 2.71428571,5.37612802 C2.71428571,4.57839653 2.90401803,3.84334377 3.28348214,3.17096976 C3.66294626,2.49859575 4.18191947,1.968674 4.84040179,1.5812045 C5.4988841,1.19373501 6.21875017,1 7,1 Z M7,2.75045121 C6.5312501,2.75045121 6.09933046,2.86669221 5.70424107,3.09917391 C5.30915168,3.33165561 4.99776775,3.64960866 4.77008929,4.05303307 C4.54241082,4.45645747 4.42857143,4.89748912 4.42857143,5.37612802 C4.42857143,5.85476692 4.54241082,6.29579857 4.77008929,6.69922298 C4.99776775,7.10264739 5.30915168,7.42060044 5.70424107,7.65308213 C6.09933046,7.88556383 6.5312501,8.00180484 7,8.00180484 C7.4687499,8.00180484 7.90066954,7.88556383 8.29575893,7.65308213 C8.69084832,7.42060044 9.00223225,7.10264739 9.22991071,6.69922298 C9.45758918,6.29579857 9.57142857,5.85476692 9.57142857,5.37612802 C9.57142857,4.89748912 9.45758918,4.45645747 9.22991071,4.05303307 C9.00223225,3.64960866 8.69084832,3.33165561 8.29575893,3.09917391 C7.90066954,2.86669221 7.4687499,2.75045121 7,2.75045121 Z" id="path-1"></path>
    </defs>
    <g id="atoms-/-icons-/-small-/-user" stroke="none" stroke-width="1" fill="none" fill-rule="evenodd">
        <mask id="mask-2" fill="white">
            <use xlink:href="#path-1"></use>
        </mask>
        <use id="Mask" fill="#5C5C5D" xlink:href="#path-1"></use>
    </g>
</svg>
