<?xml version="1.0" encoding="UTF-8"?>
<svg width="16px" height="16px" viewBox="0 0 16 16" version="1.1" xmlns="http://www.w3.org/2000/svg" xmlns:xlink="http://www.w3.org/1999/xlink">
    <defs>
        <path d="M4.4,8.05002325 C3.85,8.05002325 3.37916679,7.85419004 2.9875,7.46252325 C2.59583321,7.07085645 2.4,6.60002325 2.4,6.05002325 C2.4,5.50002325 2.59583321,5.02919004 2.9875,4.63752325 C3.37916679,4.24585645 3.85,4.05002325 4.4,4.05002325 C4.95,4.05002325 5.42083321,4.24585645 5.8125,4.63752325 C6.20416679,5.02919004 6.4,5.50002325 6.4,6.05002325 C6.4,6.60002325 6.20416679,7.07085645 5.8125,7.46252325 C5.42083321,7.85419004 4.95,8.05002325 4.4,8.05002325 Z M13.2,4.85002325 C13.7,4.85002325 14.1666668,4.97502325 14.6,5.22502325 C15.0333332,5.47502325 15.375,5.81669004 15.625,6.25002325 C15.875,6.68335645 16,7.15002325 16,7.65002325 L16,12.4500232 C16,12.56669 15.9625,12.6625232 15.8875,12.7375232 C15.8125,12.8125232 15.7166668,12.8500232 15.6,12.8500232 L14.8,12.8500232 C14.6833332,12.8500232 14.5875,12.8125232 14.5125,12.7375232 C14.4375,12.6625232 14.4,12.56669 14.4,12.4500232 L14.4,11.2500232 L1.6,11.2500232 L1.6,12.4500232 C1.6,12.56669 1.5625,12.6625232 1.4875,12.7375232 C1.4125,12.8125232 1.31666679,12.8500232 1.2,12.8500232 L0.4,12.8500232 C0.283333206,12.8500232 0.1875,12.8125232 0.1125,12.7375232 C0.0375,12.6625232 0,12.56669 0,12.4500232 L0,3.65002325 C0,3.53335645 0.0375,3.43752325 0.1125,3.36252325 C0.1875,3.28752325 0.283333206,3.25002325 0.4,3.25002325 L1.2,3.25002325 C1.31666679,3.25002325 1.4125,3.28752325 1.4875,3.36252325 C1.5625,3.43752325 1.6,3.53335645 1.6,3.65002325 L1.6,8.85002325 L7.2,8.85002325 L7.2,5.25002325 C7.2,5.13335645 7.2375,5.03752325 7.3125,4.96252325 C7.3875,4.88752325 7.48333321,4.85002325 7.6,4.85002325 L13.2,4.85002325 Z" id="path-1"></path>
    </defs>
    <g id="atoms-/-icons-/-small-/-bedroom" stroke="none" stroke-width="1" fill="none" fill-rule="evenodd">
        <mask id="mask-2" fill="white">
            <use xlink:href="#path-1"></use>
        </mask>
        <use id="Mask" fill="#5C5C5D" xlink:href="#path-1"></use>
    </g>
</svg>
